<?xml version="1.0" encoding="UTF-8" standalone="no"?>
<!-- Created with Inkscape (http://www.inkscape.org/) -->

<svg
   width="25.594879mm"
   height="25.595154mm"
   viewBox="0 0 25.594879 25.595154"
   version="1.1"
   id="svg230"
   xmlns="http://www.w3.org/2000/svg"
   xmlns:svg="http://www.w3.org/2000/svg">
  <defs
     id="defs227" />
  <g
     id="layer1"
     transform="translate(-71.951109,-93.8076)">
    <g
       data-v-423bf9ae=""
       id="7a310325-b29a-46d5-86cb-ddf792ea86da"
       transform="matrix(0.27430825,0,0,0.27430825,71.071951,92.988516)"
       stroke="none"
       fill="#000000">
      <circle
         cx="59.327999"
         cy="44.807999"
         r="3.691"
         id="circle195" />
      <path
         d="m 49.858,2.986 c -25.725,0 -46.653,20.928 -46.653,46.654 0,25.727 20.928,46.654 46.653,46.654 25.725,0 46.654,-20.927 46.654,-46.654 0,-25.726 -20.929,-46.654 -46.654,-46.654 z m 9.47,36.558 a 5.27,5.27 0 0 1 5.264,5.262 c 0,2.017 -1.151,3.75 -2.818,4.635 -0.046,0.019 -0.086,0.045 -0.13,0.07 a 5.199,5.199 0 0 1 -2.315,0.56 5.27,5.27 0 0 1 -5.263,-5.265 5.269,5.269 0 0 1 5.262,-5.262 z m 6.961,2.1 13.498,7.635 C 71.131,49.175 67.71,49.164 65.582,49.207 a 7.587,7.587 0 0 0 0.707,-7.563 z m -14.572,3.973 c 0.406,3.842 3.666,6.847 7.611,6.847 a 7.574,7.574 0 0 0 3.289,-0.754 l 0.28,-0.014 c 1.677,-0.081 2.739,-0.131 6.359,-0.122 a 22.637,22.637 0 0 0 -6.434,4.677 C 56.606,62.67 53.755,72.219 52.452,79.283 50.116,71.469 42.544,65.396 42.544,65.296 a 17.154,17.154 0 0 0 -2.556,-2.513 c 0.595,-7.238 6.358,-13.047 7.591,-14.506 1.943,-1.863 3.353,-2.468 4.138,-2.66 z m 2.075,48.103 -0.138,-5.165 0.108,0.003 c 0.004,-0.21 0.69,-21.062 11.436,-31.298 4.011,-3.816 8.973,-5.668 14.752,-5.494 l 0.002,-0.093 c 1.355,0.016 2.838,0.035 4.463,0.056 h 0.018 a 1.197,1.197 0 0 0 0.588,-2.237 L 64.411,37.835 A 1.193,1.193 0 0 0 63.978,37.693 L 62.21,24.103 60.369,9.944 58.527,25.085 58.176,24.104 56.334,9.944 54.765,25.085 53.196,9.944 51.353,24.103 49.952,34.88 c -0.884,0.292 -1.403,0.557 -1.375,0.557 C 35.584,40.322 27.642,54.695 24.651,59.542 18.526,60.903 12.178,66.28 9.806,68.459 A 43.99,43.99 0 0 1 5.595,49.64 c 0,-24.405 19.856,-44.263 44.263,-44.263 24.408,0 44.263,19.857 44.263,44.263 0,23.08 -17.759,42.082 -40.329,44.08 z"
         id="path197" />
    </g>
  </g>
</svg>
